<?xml version="1.0" standalone="no"?><!DOCTYPE svg PUBLIC "-//W3C//DTD SVG 1.1//EN" "http://www.w3.org/Graphics/SVG/1.1/DTD/svg11.dtd"><svg class="icon" height="512" viewBox="0 0 1024 1024" version="1.1" xmlns="http://www.w3.org/2000/svg"><path d="M797.147429 493.714286a19.748571 19.748571 0 0 1-5.705143 13.129143L525.165714 773.12c-3.437714 3.437714-8.557714 5.705143-13.129143 5.705143s-9.728-2.304-13.129142-5.705143l-266.276572-266.276571c-3.437714-3.437714-5.705143-8.557714-5.705143-13.129143s2.304-9.728 5.705143-13.129143l28.562286-28.562286a18.578286 18.578286 0 0 1 13.129143-5.705143 19.748571 19.748571 0 0 1 13.129143 5.705143l224.585142 224.585143 224.585143-224.585143c3.437714-3.437714 8.557714-5.705143 13.129143-5.705143s9.728 2.304 13.129143 5.705143l28.562286 28.562286a19.602286 19.602286 0 0 1 5.705143 13.129143z m0-219.428572a19.748571 19.748571 0 0 1-5.705143 13.129143L525.165714 553.691429c-3.437714 3.437714-8.557714 5.705143-13.129143 5.705142s-9.728-2.304-13.129142-5.705142L232.630857 287.414857c-3.437714-3.437714-5.705143-8.557714-5.705143-13.129143s2.304-9.728 5.705143-13.129143l28.562286-28.562285a18.578286 18.578286 0 0 1 13.129143-5.705143 19.748571 19.748571 0 0 1 13.129143 5.705143l224.585142 224.585143 224.585143-224.585143c3.437714-3.437714 8.557714-5.705143 13.129143-5.705143s9.728 2.304 13.129143 5.705143l28.562286 28.562285a19.602286 19.602286 0 0 1 5.705143 13.129143z" fill="#666666" /></svg>